# Blender v2.91.0 OBJ File: 'untitled.blend'
# www.blender.org
mtllib heli.mtl
o Box001_메쉬
v -0.050000 0.000000 0.050000
v 0.050000 0.000000 0.050000
v -0.050000 0.000000 -0.050000
v 0.050000 0.000000 -0.050000
v -0.050000 0.100000 0.050000
v 0.050000 0.100000 0.050000
v -0.050000 0.100000 -0.050000
v 0.050000 0.100000 -0.050000
v -0.106100 0.031672 0.016877
v -0.047865 0.031672 0.016877
v -0.106100 0.031672 -0.016400
v -0.047865 0.031672 -0.016400
v -0.106100 0.064950 0.016877
v -0.047865 0.064950 0.016877
v -0.106100 0.064950 -0.016400
v -0.047865 0.064950 -0.016400
vt 1.000000 0.000000
vt 1.000000 1.000000
vt 0.000000 1.000000
vt 0.000000 0.000000
vt 0.000000 0.000000
vt 1.000000 0.000000
vt 1.000000 1.000000
vt 0.000000 1.000000
vt 0.000000 0.000000
vt 1.000000 0.000000
vt 1.000000 1.000000
vt 0.000000 1.000000
vt 1.000000 0.000000
vt 0.000000 1.000000
vt 0.000000 0.000000
vt 1.000000 0.000000
vt 1.000000 1.000000
vt 0.000000 1.000000
vt 0.000000 0.000000
vt 1.000000 1.000000
vt 1.000000 0.000000
vt 1.000000 1.000000
vt 0.000000 1.000000
vt 0.000000 0.000000
vt 0.000000 0.000000
vt 1.000000 0.000000
vt 1.000000 1.000000
vt 0.000000 1.000000
vt 0.000000 0.000000
vt 1.000000 0.000000
vt 1.000000 1.000000
vt 0.000000 1.000000
vt 1.000000 0.000000
vt 0.000000 1.000000
vt 0.000000 0.000000
vt 1.000000 0.000000
vt 1.000000 1.000000
vt 0.000000 1.000000
vt 0.000000 0.000000
vt 1.000000 1.000000
vn 0.0000 -1.0000 0.0000
vn 0.0000 1.0000 0.0000
vn 0.0000 0.0000 1.0000
vn 1.0000 0.0000 0.0000
vn 0.0000 0.0000 -1.0000
vn -1.0000 0.0000 0.0000
usemtl None
s 1
f 1/1/1 3/2/1 4/3/1 2/4/1
f 5/5/2 6/6/2 8/7/2 7/8/2
f 1/9/3 2/10/3 6/11/3 5/12/3
f 2/4/4 4/13/4 8/7/4 6/14/4
f 4/15/5 3/16/5 7/17/5 8/18/5
f 3/19/6 1/1/6 5/20/6 7/8/6
f 9/21/1 11/22/1 12/23/1 10/24/1
f 13/25/2 14/26/2 16/27/2 15/28/2
f 9/29/3 10/30/3 14/31/3 13/32/3
f 10/24/4 12/33/4 16/27/4 14/34/4
f 12/35/5 11/36/5 15/37/5 16/38/5
f 11/39/6 9/21/6 13/40/6 15/28/6
